# xmcd
#
# Track frame offsets: 
#        150
#        13625
#        30075
#        43345
#        56002
#        69350
#        89980
#        107847
#        120762
#        136087
#        151045
#        162585
#        178657
#        193385
#        212637
#        226545
#
# Disc length: 3182 seconds
#
# Revision: 5
# Processed by: cddbd v1.5.1PL2 Copyright (c) Steve Scherf et al.
# Submitted via: ExactAudioCopy v0.95b3
#
DISCID=cf0c6c10,d40c6c10
DTITLE=Bay City Rollers - Starke Zeiten
DYEAR=1988
DGENRE=Pop
TTITLE0=It´S A Game
TTITLE1=I Only Want To Be With You
TTITLE2=Saturday Night
TTITLE3=Bye Bye Baby
TTITLE4=Rock And Roll Love Letter
TTITLE5=Yesterday´S Hero
TTITLE6=Dedication
TTITLE7=Don't Stop The Music
TTITLE8=Give A Little Love
TTITLE9=Money Honey
TTITLE10=Remember (Sha La La La)
TTITLE11=Where Will I Be Now
TTITLE12=Summer Love Sensation
TTITLE13=You´Re A Woman
TTITLE14=Shang-A-Lang
TTITLE15=You Made Me Believe In Magic
EXTD=
EXTT0=
EXTT1=
EXTT2=
EXTT3=
EXTT4=
EXTT5=
EXTT6=
EXTT7=
EXTT8=
EXTT9=
EXTT10=
EXTT11=
EXTT12=
EXTT13=
EXTT14=
EXTT15=
PLAYORDER=
